HIERARCHY
ROOT Hips
{
  OFFSET 0.000 73.904 0.000
  CHANNELS 6 Xposition Yposition Zposition Zrotation Xrotation Yrotation
  JOINT LeftUpLeg
  {
    OFFSET 7.940 0.767 3.298
    CHANNELS 6 Xposition Yposition Zposition Zrotation Xrotation Yrotation
    JOINT LeftLeg
    {
      OFFSET 0.000 -31.440 0.000
      CHANNELS 6 Xposition Yposition Zposition Zrotation Xrotation Yrotation
      JOINT LeftFoot
      {
        OFFSET 0.000 -43.232 0.000
        CHANNELS 6 Xposition Yposition Zposition Zrotation Xrotation Yrotation
        End Site
        {
          OFFSET 0.000 0.000 10.700
        }
      }
    }
  }
  JOINT RightUpLeg
  {
    OFFSET -7.940 0.767 3.298
    CHANNELS 6 Xposition Yposition Zposition Zrotation Xrotation Yrotation
    JOINT RightLeg
    {
      OFFSET 0.000 -31.440 0.000
      CHANNELS 6 Xposition Yposition Zposition Zrotation Xrotation Yrotation
      JOINT RightFoot
      {
        OFFSET 0.000 -43.232 0.000
        CHANNELS 6 Xposition Yposition Zposition Zrotation Xrotation Yrotation
        End Site
        {
          OFFSET 0.000 0.000 10.700
        }
      }
    }
  }
  JOINT Spine
  {
    OFFSET 0.000 24.571 0.000
    CHANNELS 6 Xposition Yposition Zposition Zrotation Xrotation Yrotation
    JOINT Spine1
    {
      OFFSET 0.000 18.115 0.000
      CHANNELS 6 Xposition Yposition Zposition Zrotation Xrotation Yrotation
      JOINT LeftShoulder
      {
        OFFSET 1.926 0.222 -0.093
        CHANNELS 6 Xposition Yposition Zposition Zrotation Xrotation Yrotation
        JOINT LeftArm
        {
          OFFSET 17.605 0.000 0.000
          CHANNELS 6 Xposition Yposition Zposition Zrotation Xrotation Yrotation
          JOINT LeftForeArm
          {
            OFFSET 20.033 0.000 0.000
            CHANNELS 6 Xposition Yposition Zposition Zrotation Xrotation Yrotation
            JOINT LeftHand
            {
              OFFSET 21.156 0.000 0.000
              CHANNELS 6 Xposition Yposition Zposition Zrotation Xrotation Yrotation
              JOINT LeftHandThumb1
              {
                OFFSET 4.877 -1.044 3.608
                CHANNELS 6 Xposition Yposition Zposition Zrotation Xrotation Yrotation
                JOINT LeftHandThumb2
                {
                  OFFSET 2.665 0.000 0.000
                  CHANNELS 6 Xposition Yposition Zposition Zrotation Xrotation Yrotation
                  JOINT LeftHandThumb3
                  {
                    OFFSET 2.543 0.000 0.000
                    CHANNELS 6 Xposition Yposition Zposition Zrotation Xrotation Yrotation
                    End Site
                    {
                      OFFSET 2.667 -0.000 -0.000
                    }
                  }
                }
              }
              JOINT LeftHandIndex1
              {
                OFFSET 9.232 -0.301 2.144
                CHANNELS 6 Xposition Yposition Zposition Zrotation Xrotation Yrotation
                JOINT LeftHandIndex2
                {
                  OFFSET 4.225 0.000 0.000
                  CHANNELS 6 Xposition Yposition Zposition Zrotation Xrotation Yrotation
                  JOINT LeftHandIndex3
                  {
                    OFFSET 2.654 -0.000 -0.000
                    CHANNELS 6 Xposition Yposition Zposition Zrotation Xrotation Yrotation
                    End Site
                    {
                      OFFSET 1.958 0.000 0.000
                    }
                  }
                }
              }
              JOINT LeftHandMiddle1
              {
                OFFSET 8.920 -0.000 -0.000
                CHANNELS 6 Xposition Yposition Zposition Zrotation Xrotation Yrotation
                JOINT LeftHandMiddle2
                {
                  OFFSET 4.863 0.000 -0.000
                  CHANNELS 6 Xposition Yposition Zposition Zrotation Xrotation Yrotation
                  JOINT LeftHandMiddle3
                  {
                    OFFSET 2.765 -0.000 -0.000
                    CHANNELS 6 Xposition Yposition Zposition Zrotation Xrotation Yrotation
                    End Site
                    {
                      OFFSET 2.006 0.000 0.000
                    }
                  }
                }
              }
              JOINT LeftHandRing1
              {
                OFFSET 8.689 -0.126 -2.087
                CHANNELS 6 Xposition Yposition Zposition Zrotation Xrotation Yrotation
                JOINT LeftHandRing2
                {
                  OFFSET 4.538 0.000 0.000
                  CHANNELS 6 Xposition Yposition Zposition Zrotation Xrotation Yrotation
                  JOINT LeftHandRing3
                  {
                    OFFSET 2.305 0.000 0.000
                    CHANNELS 6 Xposition Yposition Zposition Zrotation Xrotation Yrotation
                    End Site
                    {
                      OFFSET 1.923 -0.000 0.000
                    }
                  }
                }
              }
              JOINT LeftHandPinky1
              {
                OFFSET 8.391 -0.817 -3.758
                CHANNELS 6 Xposition Yposition Zposition Zrotation Xrotation Yrotation
                JOINT LeftHandPinky2
                {
                  OFFSET 3.044 0.000 0.000
                  CHANNELS 6 Xposition Yposition Zposition Zrotation Xrotation Yrotation
                  JOINT LeftHandPinky3
                  {
                    OFFSET 1.975 0.000 -0.000
                    CHANNELS 6 Xposition Yposition Zposition Zrotation Xrotation Yrotation
                    End Site
                    {
                      OFFSET 1.667 -0.000 0.000
                    }
                  }
                }
              }
            }
          }
        }
      }
      JOINT RightShoulder
      {
        OFFSET -1.926 0.222 -0.093
        CHANNELS 6 Xposition Yposition Zposition Zrotation Xrotation Yrotation
        JOINT RightArm
        {
          OFFSET -17.605 0.000 0.000
          CHANNELS 6 Xposition Yposition Zposition Zrotation Xrotation Yrotation
          JOINT RightForeArm
          {
            OFFSET -20.033 0.000 0.000
            CHANNELS 6 Xposition Yposition Zposition Zrotation Xrotation Yrotation
            JOINT RightHand
            {
              OFFSET -21.156 0.000 0.000
              CHANNELS 6 Xposition Yposition Zposition Zrotation Xrotation Yrotation
              JOINT RightHandThumb1
              {
                OFFSET -4.877 -1.044 3.608
                CHANNELS 6 Xposition Yposition Zposition Zrotation Xrotation Yrotation
                JOINT RightHandThumb2
                {
                  OFFSET -2.665 0.000 -0.000
                  CHANNELS 6 Xposition Yposition Zposition Zrotation Xrotation Yrotation
                  JOINT RightHandThumb3
                  {
                    OFFSET -2.543 0.000 0.000
                    CHANNELS 6 Xposition Yposition Zposition Zrotation Xrotation Yrotation
                    End Site
                    {
                      OFFSET -2.667 0.000 0.000
                    }
                  }
                }
              }
              JOINT RightHandIndex1
              {
                OFFSET -9.232 -0.301 2.144
                CHANNELS 6 Xposition Yposition Zposition Zrotation Xrotation Yrotation
                JOINT RightHandIndex2
                {
                  OFFSET -4.225 0.000 0.000
                  CHANNELS 6 Xposition Yposition Zposition Zrotation Xrotation Yrotation
                  JOINT RightHandIndex3
                  {
                    OFFSET -2.654 0.000 -0.000
                    CHANNELS 6 Xposition Yposition Zposition Zrotation Xrotation Yrotation
                    End Site
                    {
                      OFFSET -1.958 0.000 0.000
                    }
                  }
                }
              }
              JOINT RightHandMiddle1
              {
                OFFSET -8.920 0.000 0.000
                CHANNELS 6 Xposition Yposition Zposition Zrotation Xrotation Yrotation
                JOINT RightHandMiddle2
                {
                  OFFSET -4.863 0.000 0.000
                  CHANNELS 6 Xposition Yposition Zposition Zrotation Xrotation Yrotation
                  JOINT RightHandMiddle3
                  {
                    OFFSET -2.765 0.000 -0.000
                    CHANNELS 6 Xposition Yposition Zposition Zrotation Xrotation Yrotation
                    End Site
                    {
                      OFFSET -2.006 0.000 0.000
                    }
                  }
                }
              }
              JOINT RightHandRing1
              {
                OFFSET -8.689 -0.126 -2.087
                CHANNELS 6 Xposition Yposition Zposition Zrotation Xrotation Yrotation
                JOINT RightHandRing2
                {
                  OFFSET -4.538 -0.000 0.000
                  CHANNELS 6 Xposition Yposition Zposition Zrotation Xrotation Yrotation
                  JOINT RightHandRing3
                  {
                    OFFSET -2.305 0.000 0.000
                    CHANNELS 6 Xposition Yposition Zposition Zrotation Xrotation Yrotation
                    End Site
                    {
                      OFFSET -1.923 0.000 -0.000
                    }
                  }
                }
              }
              JOINT RightHandPinky1
              {
                OFFSET -8.391 -0.817 -3.758
                CHANNELS 6 Xposition Yposition Zposition Zrotation Xrotation Yrotation
                JOINT RightHandPinky2
                {
                  OFFSET -3.044 0.000 0.000
                  CHANNELS 6 Xposition Yposition Zposition Zrotation Xrotation Yrotation
                  JOINT RightHandPinky3
                  {
                    OFFSET -1.975 -0.000 -0.000
                    CHANNELS 6 Xposition Yposition Zposition Zrotation Xrotation Yrotation
                    End Site
                    {
                      OFFSET -1.667 -0.000 0.000
                    }
                  }
                }
              }
            }
          }
        }
      }
      JOINT Neck
      {
        OFFSET 0.000 0.598 0.000
        CHANNELS 6 Xposition Yposition Zposition Zrotation Xrotation Yrotation
        JOINT Head
        {
          OFFSET 0.000 5.402 0.000
          CHANNELS 6 Xposition Yposition Zposition Zrotation Xrotation Yrotation
          End Site
          {
            OFFSET 0.000 12.740 0.000
          }
        }
      }
    }
  }
}
MOTION
Frames:	4
Frame Time:	0.033333
-21.07435 82.76818 -253.97914 -7.55832 6.93444 5.79559 8.19202 0.72137 3.39370 16.57425 -22.80909 12.68172 -0.01405 -28.44573 -0.02100 0.87378 28.32089 -0.38708 -0.01086 -43.73461 0.00720 0.54453 30.35155 -2.25592 -8.44876 1.03669 3.41275 -23.77595 -32.67725 -25.55259 0.01832 -35.44154 0.09428 17.29103 31.74977 8.35850 0.04811 -42.44775 0.01106 -1.21820 18.88522 4.32189 0.00133 24.47571 0.00730 -0.03644 2.75855 0.36602 0.00112 18.12956 -0.00672 0.02036 3.20800 0.56612 1.97925 0.20701 -0.05238 6.34622 0.09675 1.04310 18.03156 0.10546 0.12796 6.86759 3.03817 -11.59262 18.74549 0.26275 0.18981 8.53132 11.08955 -65.58374 19.88857 0.09912 0.13939 -0.30731 21.39059 2.22097 4.87700 -1.04402 3.60799 -26.23071 2.53673 -7.78774 2.66504 0.00001 0.00001 0.00000 -0.00000 9.56201 2.54300 0.00000 0.00000 -0.00000 0.00000 18.94192 9.23200 -0.30101 2.14398 -18.07284 0.00000 -0.00000 4.22502 0.00001 0.00000 -22.63485 -0.00000 -0.00000 2.65398 -0.00002 -0.00001 -27.12301 2.08332 -4.05943 8.92000 -0.00001 -0.00001 -25.25591 0.00000 0.00000 4.86300 0.00001 -0.00001 -30.69389 0.00000 -0.00001 2.76499 -0.00005 -0.00002 -33.42055 2.51277 -3.80646 8.68897 -0.12603 -2.08700 -25.25591 0.00000 0.00000 4.53801 0.00000 0.00000 -30.69389 0.00000 -0.00001 2.30501 0.00002 0.00000 -33.42055 2.51277 -3.80646 8.39102 -0.81699 -3.75801 -18.07284 0.00000 -0.00000 3.04400 0.00000 0.00000 -22.63485 -0.00000 -0.00000 1.97501 0.00001 -0.00002 -27.12301 2.08332 -4.05943 -1.89568 0.05531 0.03493 -0.62980 0.08009 -1.06609 -17.09549 0.05407 0.06325 -12.70714 4.33500 2.12989 -19.82848 0.53549 0.15628 -12.55629 8.75741 74.36929 -22.17093 0.49461 0.08579 -33.37257 16.08497 -10.29464 -4.87701 -1.04399 3.60799 25.39400 4.78128 8.30594 -2.66504 0.00000 -0.00001 -0.00000 -0.00000 -9.73357 -2.54298 0.00000 0.00000 0.00000 -0.00000 -17.39787 -9.23199 -0.30100 2.14400 18.82771 -0.00000 0.00000 -4.22499 0.00000 0.00001 23.56128 -0.00000 0.00000 -2.65400 0.00001 -0.00001 28.21323 2.24177 4.17014 -8.91999 0.00000 0.00000 23.19715 -0.00001 0.00000 -4.86301 0.00000 0.00001 28.46358 -0.00000 -0.00000 -2.76500 0.00001 -0.00001 32.04409 2.50477 4.01108 -8.68899 -0.12599 -2.08701 23.19715 -0.00001 0.00000 -4.53798 -0.00001 0.00000 28.46358 -0.00000 -0.00000 -2.30501 0.00001 0.00000 32.04409 2.50477 4.01108 -8.39100 -0.81700 -3.75800 18.82771 -0.00000 0.00000 -3.04403 0.00001 0.00000 23.56128 -0.00000 0.00000 -1.97498 -0.00002 -0.00002 28.21323 2.24177 4.17014 0.00004 0.59919 0.00002 -0.00005 0.00039 0.00012 0.00612 5.41949 0.05422 0.85602 0.44537 6.92070 
-21.70634 82.54937 -252.68456 -7.65329 8.17867 6.94785 8.16229 0.89652 3.37498 18.16519 -23.48180 13.52630 -0.01405 -28.33636 -0.02598 -0.71880 28.77728 -1.54082 -0.01086 -43.85087 0.00720 -0.47477 30.53777 0.23327 -8.54462 0.95249 3.42689 -24.79008 -34.76775 -26.38612 0.04861 -33.87112 -0.07124 16.95604 30.88097 8.42703 0.03323 -43.04180 0.03210 -1.51655 19.87661 4.68665 0.00133 24.21514 0.01213 0.04959 2.66602 0.38559 0.00112 17.94821 0.00307 0.14315 3.18036 0.53487 1.97757 0.27846 -0.05238 8.23256 0.30967 1.88671 18.09703 0.08236 0.09700 6.70460 0.81787 -11.59284 18.69377 0.16686 0.12799 13.85856 8.86216 -65.42946 19.59340 0.15046 0.16676 -2.11570 21.65865 -3.66157 4.87700 -1.04402 3.60799 -25.30295 3.54396 -8.55585 2.66504 0.00001 0.00001 0.00000 -0.00000 9.82379 2.54300 0.00000 0.00000 -0.00000 0.00000 16.58589 9.23200 -0.30101 2.14398 -19.22468 0.00000 -0.00000 4.22502 0.00001 0.00000 -24.04847 -0.00000 -0.00000 2.65398 -0.00002 -0.00001 -28.78638 2.32706 -4.22654 8.92000 -0.00001 -0.00001 -22.11451 0.00000 0.00000 4.86300 0.00001 -0.00001 -27.29073 0.00000 -0.00001 2.76499 -0.00005 -0.00002 -31.31933 2.51182 -4.11955 8.68897 -0.12603 -2.08700 -22.11451 0.00000 0.00000 4.53801 0.00000 0.00000 -27.29073 0.00000 -0.00001 2.30501 0.00002 0.00000 -31.31933 2.51182 -4.11955 8.39102 -0.81699 -3.75801 -19.22468 0.00000 -0.00000 3.04400 0.00000 0.00000 -24.04847 -0.00000 -0.00000 1.97501 0.00001 -0.00002 -28.78638 2.32706 -4.22654 -1.92430 0.12289 0.02162 -3.28699 0.16832 -1.93965 -17.21402 0.03807 0.06041 -14.85705 1.28509 2.07755 -20.23918 0.37892 0.11322 -14.86750 6.09047 71.56247 -21.92712 0.41324 0.10305 -21.34926 15.93202 -11.09818 -4.87701 -1.04399 3.60799 24.95633 4.44117 8.76740 -2.66504 0.00000 -0.00001 -0.00000 -0.00000 -9.89281 -2.54298 0.00000 0.00000 0.00000 -0.00000 -15.96469 -9.23199 -0.30100 2.14400 19.52837 -0.00000 0.00000 -4.22499 0.00000 0.00001 24.42118 -0.00000 0.00000 -2.65400 0.00001 -0.00001 29.22479 2.39327 4.26879 -8.91999 0.00000 0.00000 21.28625 -0.00001 0.00000 -4.86301 0.00000 0.00001 26.39345 -0.00000 -0.00000 -2.76500 0.00001 -0.00001 30.76572 2.50417 4.20289 -8.68899 -0.12599 -2.08701 21.28625 -0.00001 0.00000 -4.53798 -0.00001 0.00000 26.39345 -0.00000 -0.00000 -2.30501 0.00001 0.00000 30.76572 2.50417 4.20289 -8.39100 -0.81700 -3.75800 19.52837 -0.00000 0.00000 -3.04403 0.00001 0.00000 24.42118 -0.00000 0.00000 -1.97498 -0.00002 -0.00002 29.22479 2.39327 4.26879 0.00004 0.59919 0.00002 -0.00005 0.00039 0.00012 -0.00993 5.35699 0.06665 1.77615 -1.08354 5.52669 
-21.99159 81.89410 -251.75749 -7.23437 8.59797 7.50184 8.10140 0.96459 3.35791 18.49656 -23.74834 14.01533 -0.01571 -28.16816 -0.03224 -1.21328 29.45035 -2.03650 -0.01086 -43.87661 0.00720 -1.26530 32.13797 1.82067 -8.52551 0.90715 3.43980 -25.51685 -34.91222 -26.48553 0.03571 -33.60939 -0.06716 17.31636 30.86914 8.35297 0.02335 -43.38123 0.01028 -1.48656 19.45984 4.63512 0.00133 24.16057 0.02112 0.12084 2.64242 0.48007 0.00112 17.90587 0.01138 0.21229 3.16434 0.59761 1.96469 0.28428 -0.05238 8.44370 0.31261 1.88188 17.97941 0.05769 0.09140 6.98081 -0.14283 -11.64723 18.70109 0.12284 0.09437 15.50115 8.49300 -64.57995 19.53309 0.15761 0.14883 -2.16113 22.92428 -6.10539 4.87700 -1.04402 3.60799 -25.06235 3.79739 -8.75394 2.66504 0.00001 0.00001 0.00000 -0.00000 9.89066 2.54300 0.00000 0.00000 -0.00000 0.00000 15.98409 9.23200 -0.30101 2.14398 -19.51888 0.00000 -0.00000 4.22502 0.00001 0.00000 -24.40954 -0.00000 -0.00000 2.65398 -0.00002 -0.00001 -29.21110 2.39121 -4.26746 8.92000 -0.00001 -0.00001 -21.31212 0.00000 0.00000 4.86300 0.00001 -0.00001 -26.42146 0.00000 -0.00001 2.76499 -0.00005 -0.00002 -30.78278 2.50745 -4.20029 8.68897 -0.12603 -2.08700 -21.31212 0.00000 0.00000 4.53801 0.00000 0.00000 -26.42146 0.00000 -0.00001 2.30501 0.00002 0.00000 -30.78278 2.50745 -4.20029 8.39102 -0.81699 -3.75801 -19.51888 0.00000 -0.00000 3.04400 0.00000 0.00000 -24.40954 -0.00000 -0.00000 1.97501 0.00001 -0.00002 -29.21110 2.39121 -4.26746 -1.94321 0.14216 0.02607 -4.24604 0.16976 -1.90188 -17.32013 0.01805 0.08652 -15.50670 -1.31910 2.13129 -20.43270 0.30342 0.07802 -16.45302 4.45622 69.14223 -21.03653 0.15971 0.19128 -11.64933 17.16224 -8.80296 -4.87701 -1.04399 3.60799 24.84566 4.35323 8.88569 -2.66504 0.00000 -0.00001 -0.00000 -0.00000 -9.93349 -2.54298 0.00000 0.00000 0.00000 -0.00000 -15.59862 -9.23199 -0.30100 2.14400 19.70734 -0.00000 0.00000 -4.22499 0.00000 0.00001 24.64084 -0.00000 0.00000 -2.65400 0.00001 -0.00001 29.48312 2.43266 4.29332 -8.91999 0.00000 0.00000 20.79816 -0.00001 0.00000 -4.86301 0.00000 0.00001 25.86468 -0.00000 -0.00000 -2.76500 0.00001 -0.00001 30.43914 2.50401 4.25215 -8.68899 -0.12599 -2.08701 20.79816 -0.00001 0.00000 -4.53798 -0.00001 0.00000 25.86468 -0.00000 -0.00000 -2.30501 0.00001 0.00000 30.43914 2.50401 4.25215 -8.39100 -0.81700 -3.75800 19.70734 -0.00000 0.00000 -3.04403 0.00001 0.00000 24.64084 -0.00000 0.00000 -1.97498 -0.00002 -0.00002 29.48312 2.43266 4.29332 0.00004 0.59919 0.00002 -0.00005 0.00039 0.00012 -0.01914 5.33847 0.07037 1.94793 -1.36891 4.35255 
-22.32376 80.95853 -250.78395 -6.54060 9.03157 8.36750 8.02044 1.07260 3.33808 18.84551 -24.29817 14.59029 -0.02390 -27.87291 -0.05144 -2.02057 30.43868 -2.58028 -0.01615 -43.89158 0.00720 -1.85267 33.28437 2.93778 -8.51085 0.83140 3.43961 -27.11773 -34.87985 -27.19923 0.02601 -32.83155 -0.06016 18.14179 31.19094 8.14659 0.01610 -43.65115 -0.00557 -1.39469 19.00045 4.41703 0.00133 24.13558 0.02578 0.22954 2.61492 0.37513 -0.00290 17.88898 0.02201 0.29275 3.14812 0.44610 1.95768 0.28221 -0.05238 8.44433 0.31348 1.95049 17.95293 0.04490 0.06535 6.72109 -1.09706 -12.81945 18.77654 0.09322 0.09383 16.75850 8.64165 -62.43025 19.45788 0.14107 0.12172 -1.03291 24.69627 -9.38399 4.87700 -1.04402 3.60799 -24.91004 3.95625 -8.87908 2.66504 0.00001 0.00001 0.00000 -0.00000 9.93277 2.54300 0.00000 0.00000 -0.00000 0.00000 15.60505 9.23200 -0.30101 2.14398 -19.70419 0.00000 -0.00000 4.22502 0.00001 0.00000 -24.63696 -0.00000 -0.00000 2.65398 -0.00002 -0.00001 -29.47858 2.43196 -4.29288 8.92000 -0.00001 -0.00001 -20.80674 0.00000 0.00000 4.86300 0.00001 -0.00001 -25.87396 0.00000 -0.00001 2.76499 -0.00005 -0.00002 -30.44490 2.50381 -4.25127 8.68897 -0.12603 -2.08700 -20.80674 0.00000 0.00000 4.53801 0.00000 0.00000 -25.87396 0.00000 -0.00001 2.30501 0.00002 0.00000 -30.44490 2.50381 -4.25127 8.39102 -0.81699 -3.75801 -19.70419 0.00000 -0.00000 3.04400 0.00000 0.00000 -24.63696 -0.00000 -0.00000 1.97501 0.00001 -0.00002 -29.47858 2.43196 -4.29288 -1.95587 0.17030 0.02078 -5.37645 0.19228 -1.95457 -17.39627 0.00131 0.09288 -13.20743 -4.51243 2.83568 -20.82162 0.18191 0.18361 -18.36083 1.64648 67.19394 -20.47978 0.00165 0.06210 -8.47654 16.27619 -7.51125 -4.87701 -1.04399 3.60799 24.77620 4.29763 8.96027 -2.66504 0.00000 -0.00001 -0.00000 -0.00000 -9.95911 -2.54298 0.00000 0.00000 0.00000 -0.00000 -15.36805 -9.23199 -0.30100 2.14400 19.82007 -0.00000 0.00000 -4.22499 0.00000 0.00001 24.77917 -0.00000 0.00000 -2.65400 0.00001 -0.00001 29.64581 2.45759 4.30863 -8.91999 0.00000 0.00000 20.49074 -0.00001 0.00000 -4.86301 0.00000 0.00001 25.53164 -0.00000 -0.00000 -2.76500 0.00001 -0.00001 30.23358 2.50170 4.28321 -8.68899 -0.12599 -2.08701 20.49074 -0.00001 0.00000 -4.53798 -0.00001 0.00000 25.53164 -0.00000 -0.00000 -2.30501 0.00001 0.00000 30.23358 2.50170 4.28321 -8.39100 -0.81700 -3.75800 19.82007 -0.00000 0.00000 -3.04403 0.00001 0.00000 24.77917 -0.00000 0.00000 -1.97498 -0.00002 -0.00002 29.64581 2.45759 4.30863 0.00004 0.59919 0.00002 -0.00005 0.00039 0.00012 -0.03331 5.32719 0.07751 1.90171 -1.02412 3.25861 
